<svg width="24" height="30" viewBox="0 0 24 30" fill="none" xmlns="http://www.w3.org/2000/svg">
<g opacity="0.8">
<path d="M3.00001 11L15.0873 6.9709C16.1108 6.62974 16.6226 6.45916 17.0888 6.52212C17.4991 6.57752 17.8841 6.75656 18.1913 7.03483C18.5404 7.351 18.7412 7.85292 19.1427 8.85675L20 11L3.00001 11Z" fill="#FFA800"/>
<path d="M0 15.2C0 14.0799 0 13.5198 0.217987 13.092C0.409734 12.7157 0.715695 12.4097 1.09202 12.218C1.51984 12 2.0799 12 3.2 12H19.8C20.9201 12 21.4802 12 21.908 12.218C22.2843 12.4097 22.5903 12.7157 22.782 13.092C23 13.5198 23 14.0799 23 15.2V17H19.2C18.0799 17 17.5198 17 17.092 17.218C16.7157 17.4097 16.4097 17.7157 16.218 18.092C16 18.5198 16 19.0799 16 20.2V21.8C16 22.9201 16 23.4802 16.218 23.908C16.4097 24.2843 16.7157 24.5903 17.092 24.782C17.5198 25 18.0799 25 19.2 25H23V26.8C23 27.9201 23 28.4802 22.782 28.908C22.5903 29.2843 22.2843 29.5903 21.908 29.782C21.4802 30 20.9201 30 19.8 30H3.2C2.0799 30 1.51984 30 1.09202 29.782C0.715695 29.5903 0.409734 29.2843 0.217987 28.908C0 28.4802 0 27.9201 0 26.8V15.2Z" fill="#FFA800"/>
<path fill-rule="evenodd" clip-rule="evenodd" d="M17.109 18.546C17 18.7599 17 19.0399 17 19.6V22.4C17 22.9601 17 23.2401 17.109 23.454C17.2049 23.6422 17.3578 23.7951 17.546 23.891C17.7599 24 18.0399 24 18.6 24H22.4C22.9601 24 23.2401 24 23.454 23.891C23.6422 23.7951 23.7951 23.6422 23.891 23.454C24 23.2401 24 22.9601 24 22.4V19.6C24 19.0399 24 18.7599 23.891 18.546C23.7951 18.3578 23.6422 18.2049 23.454 18.109C23.2401 18 22.9601 18 22.4 18H18.6C18.0399 18 17.7599 18 17.546 18.109C17.3578 18.2049 17.2049 18.3578 17.109 18.546ZM20 22.5C20.8284 22.5 21.5 21.8284 21.5 21C21.5 20.1716 20.8284 19.5 20 19.5C19.1716 19.5 18.5 20.1716 18.5 21C18.5 21.8284 19.1716 22.5 20 22.5Z" fill="#FFA800"/>
</g>
</svg>
