<svg width="24" height="28" viewBox="0 0 24 28" fill="none" xmlns="http://www.w3.org/2000/svg">
<g opacity="0.8">
<path d="M3.00001 9.00001L15.0873 4.9709C16.1108 4.62974 16.6226 4.45916 17.0888 4.52212C17.4991 4.57752 17.8841 4.75656 18.1913 5.03483C18.5404 5.351 18.7412 5.85292 19.1427 6.85675L20 9L3.00001 9.00001Z" fill="#FFA800"/>
<path d="M0 13.2C0 12.0799 0 11.5198 0.217987 11.092C0.409734 10.7157 0.715695 10.4097 1.09202 10.218C1.51984 10 2.0799 10 3.2 10H19.8C20.9201 10 21.4802 10 21.908 10.218C22.2843 10.4097 22.5903 10.7157 22.782 11.092C23 11.5198 23 12.0799 23 13.2V15H19.2C18.0799 15 17.5198 15 17.092 15.218C16.7157 15.4097 16.4097 15.7157 16.218 16.092C16 16.5198 16 17.0799 16 18.2V19.8C16 20.9201 16 21.4802 16.218 21.908C16.4097 22.2843 16.7157 22.5903 17.092 22.782C17.5198 23 18.0799 23 19.2 23H23V24.8C23 25.9201 23 26.4802 22.782 26.908C22.5903 27.2843 22.2843 27.5903 21.908 27.782C21.4802 28 20.9201 28 19.8 28H3.2C2.0799 28 1.51984 28 1.09202 27.782C0.715695 27.5903 0.409734 27.2843 0.217987 26.908C0 26.4802 0 25.9201 0 24.8V13.2Z" fill="#FFA800"/>
<path fill-rule="evenodd" clip-rule="evenodd" d="M17.109 16.546C17 16.7599 17 17.0399 17 17.6V20.4C17 20.9601 17 21.2401 17.109 21.454C17.2049 21.6422 17.3578 21.7951 17.546 21.891C17.7599 22 18.0399 22 18.6 22H22.4C22.9601 22 23.2401 22 23.454 21.891C23.6422 21.7951 23.7951 21.6422 23.891 21.454C24 21.2401 24 20.9601 24 20.4V17.6C24 17.0399 24 16.7599 23.891 16.546C23.7951 16.3578 23.6422 16.2049 23.454 16.109C23.2401 16 22.9601 16 22.4 16H18.6C18.0399 16 17.7599 16 17.546 16.109C17.3578 16.2049 17.2049 16.3578 17.109 16.546ZM20 20.5C20.8284 20.5 21.5 19.8284 21.5 19C21.5 18.1716 20.8284 17.5 20 17.5C19.1716 17.5 18.5 18.1716 18.5 19C18.5 19.8284 19.1716 20.5 20 20.5Z" fill="#FFA800"/>
</g>
</svg>
